# xmcd
#
# Track frame offsets:
#	150
#	17978
#	33492
#	46632
#	60259
#	76120
#	93589
#	110715
#	126230
#	139166
#	152948
#	165945
#	179988
#	195112
#	209403
#	223749
#
# Disc length: 3136 seconds
#
# Revision: 1
# Processed by: cddbd v1.5.1PL0 Copyright (c) Steve Scherf et al.
# Submitted via: EasyCDDAExtractor 6.2.0.3
#
DISCID=dc0c3e10
DTITLE=Various Artist - Só Bailão 2004
DYEAR=1900
DGENRE=
TTITLE0=Zezé di Camargo e Luciano - Galera Felicidade
TTITLE1=Juliano Cezár - Rodo sem Borracha
TTITLE2=Delley e Dorivan - Aconteceu Comigo (ãh ãh ãh)
TTITLE3=Teodoro e Sampaio - Mulher Chorona
TTITLE4=Felipe e Falcão - Nem Tchum
TTITLE5=Guilherme e Santiago - A Outra (misturinha)
TTITLE6=Gian e Giovani - Das 6:00 da Tarde às 6:00 da Manhã
TTITLE7=Cezár e Paulinho - Morena Ai Ai
TTITLE8=Bruno e Marrone - É Pra Lá que Eu Vou
TTITLE9=Cezár e Paulinho - Nóis Só Que Virá o Zóio
TTITLE10=Gilberto e Gilmar - Tá Embolado o Meio de Campo (vaca brava)
TTITLE11=Bruno e Marrone - Apaziguar
TTITLE12=Leonardo - Escorpião
TTITLE13=João Márcio e Fabiano - Rick e Renner - Machuca Eu
TTITLE14=Maurício e Marcelo - Tô Numa Boa com a Patroa
TTITLE15=Matogrosso e Matias - Só Fazendo Amor
EXTD=
EXTT0=
EXTT1=
EXTT2=
EXTT3=
EXTT4=
EXTT5=
EXTT6=
EXTT7=
EXTT8=
EXTT9=
EXTT10=
EXTT11=
EXTT12=
EXTT13=
EXTT14=
EXTT15=
PLAYORDER=
